# xmcd
#
# Track frame offsets:
#	150
#	11425
#	25025
#	38537
#	49600
#	62462
#	74525
#	85112
#	97262
#	108650
#	120712
#	134500
#	149012
#	163037
#	175162
#	186850
#
# Disc length: 2781 seconds
#
# Revision: 1
# Processed by: cddbd v1.5PL3 Copyright (c) Steve Scherf et al.
# Submitted via: CDex 1.50Beta5
#
DISCID=dd0adb10
DTITLE=フィンガー5 - フィンガー王国
DYEAR=1999
DGENRE=Pop
TTITLE0=フィンガー5のテーマ
TTITLE1=個人授業
TTITLE2=恋のダイヤル6700
TTITLE3=ステッピン・ストーン
TTITLE4=帰ってほしいの
TTITLE5=ハレルヤ・デイ
TTITLE6=小さな経験
TTITLE7=バンプ天国
TTITLE8=恋の大予言
TTITLE9=愛のインスピレーション
TTITLE10=ママはセクシー
TTITLE11=華麗なうわさ
TTITLE12=シンディ思い出ありがとう
TTITLE13=恋のアメリカン・フットボール
TTITLE14=学園天国
TTITLE15=フィンガー天国〜readymade 5×5 mix〜
EXTD=
EXTT0=
EXTT1=
EXTT2=
EXTT3=
EXTT4=
EXTT5=
EXTT6=
EXTT7=
EXTT8=
EXTT9=
EXTT10=
EXTT11=
EXTT12=
EXTT13=
EXTT14=
EXTT15=
PLAYORDER=
